<svg width="19" height="19" viewBox="0 0 19 19" fill="none" xmlns="http://www.w3.org/2000/svg">
<path d="M3.75198 4.37979C5.21333 2.91844 6.84552 1.79878 7.9495 1.12067C8.75411 0.626444 9.74985 0.626445 10.5545 1.12067C11.6584 1.79878 13.2906 2.91844 14.752 4.37979C17.9204 7.54817 17.752 9.37979 17.752 12.3798C17.752 13.7896 17.6416 14.9786 17.5245 15.8429C17.4013 16.7524 16.6082 17.3798 15.6904 17.3798H14.252C13.1474 17.3798 12.252 16.4844 12.252 15.3798V13.3798C12.252 12.5841 11.9359 11.8211 11.3733 11.2585C10.8107 10.6959 10.0476 10.3798 9.25198 10.3798C8.45633 10.3798 7.69327 10.6959 7.13066 11.2585C6.56805 11.8211 6.25198 12.5841 6.25198 13.3798V15.3798C6.25198 16.4844 5.35655 17.3798 4.25198 17.3798H2.81353C1.8958 17.3798 1.10263 16.7524 0.979462 15.8429C0.862403 14.9786 0.751982 13.7896 0.751982 12.3798C0.751982 9.37979 0.583583 7.54818 3.75198 4.37979Z" stroke="#387EF5" stroke-width="1.5" stroke-linecap="round" stroke-linejoin="round"/>
</svg>
