<svg xmlns="http://www.w3.org/2000/svg" viewBox="0 0 24 24" width="24" height="24" color="#b93815" fill="none">
    <defs />
    <path fill="currentColor" d="M21.75,10.955 L21.75,13.045 C21.75,14.882 21.75,16.321 21.626,17.463 C21.5,18.629 21.238,19.573 20.652,20.38 C20.297,20.868 19.868,21.297 19.38,21.652 C18.573,22.238 17.629,22.5 16.463,22.626 C15.321,22.75 13.882,22.75 12.045,22.75 L11.955,22.75 C10.118,22.75 8.679,22.75 7.536,22.626 C6.371,22.5 5.427,22.238 4.62,21.652 C4.132,21.297 3.703,20.868 3.348,20.38 C2.762,19.573 2.5,18.629 2.374,17.463 C2.25,16.321 2.25,14.882 2.25,13.045 L2.25,10.955 C2.25,9.118 2.25,7.679 2.374,6.536 C2.5,5.371 2.762,4.427 3.348,3.62 C3.703,3.132 4.132,2.703 4.62,2.348 C5.427,1.762 6.371,1.5 7.536,1.374 C8.679,1.25 10.118,1.25 11.955,1.25 L12.045,1.25 C13.882,1.25 15.321,1.25 16.463,1.374 C17.629,1.5 18.573,1.762 19.38,2.348 C19.868,2.703 20.297,3.132 20.652,3.62 C21.238,4.427 21.5,5.371 21.626,6.536 C21.75,7.679 21.75,9.118 21.75,10.955 Z M20.135,17.302 C20.249,16.25 20.25,14.892 20.25,13 L20.25,11 C20.25,9.108 20.249,7.75 20.135,6.698 C20.022,5.66 19.807,5.01 19.438,4.502 C19.176,4.141 18.859,3.824 18.498,3.562 C17.99,3.193 17.34,2.977 16.302,2.865 C15.25,2.751 13.892,2.75 12,2.75 C10.108,2.75 8.75,2.751 7.698,2.865 C6.66,2.977 6.01,3.193 5.502,3.562 C5.141,3.824 4.824,4.141 4.562,4.502 C4.193,5.01 3.977,5.66 3.865,6.698 C3.751,7.75 3.75,9.108 3.75,11 L3.75,13 C3.75,14.892 3.751,16.25 3.865,17.302 C3.977,18.34 4.193,18.99 4.562,19.498 C4.824,19.859 5.141,20.176 5.502,20.438 C6.01,20.807 6.66,21.022 7.698,21.135 C8.75,21.249 10.108,21.25 12,21.25 C13.892,21.25 15.25,21.249 16.302,21.135 C17.34,21.022 17.99,20.807 18.498,20.438 C18.859,20.176 19.176,19.859 19.438,19.498 C19.807,18.99 20.022,18.34 20.135,17.302 Z M12,4.25 C12.414,4.25 12.75,4.586 12.75,5 L12.75,6.769 C13.024,7.133 13.299,7.25 13.5,7.25 C13.73,7.25 14.055,7.098 14.364,6.603 C14.584,6.251 15.046,6.144 15.398,6.364 C15.749,6.583 15.856,7.046 15.636,7.397 C15.172,8.139 14.439,8.75 13.5,8.75 C13.233,8.75 12.983,8.701 12.75,8.613 L12.75,9.658 C13.23,10.028 13.837,10.25 14.5,10.25 C15.274,10.25 15.972,9.947 16.481,9.459 C16.779,9.172 17.254,9.182 17.541,9.481 C17.828,9.779 17.818,10.254 17.519,10.541 C16.74,11.29 15.672,11.75 14.5,11.75 C13.878,11.75 13.286,11.62 12.75,11.387 L12.75,13.559 C13.371,13.52 13.96,13.433 14.501,13.307 C15.772,13.012 17.25,13.92 17.25,15.405 C17.25,16.145 16.84,16.915 16.055,17.207 C15.701,17.338 15.326,17.452 14.933,17.547 C14.538,17.643 14.222,17.892 14.071,18.226 L13.965,18.462 C13.616,19.237 12.856,19.75 12,19.75 C11.144,19.75 10.384,19.237 10.035,18.462 L9.929,18.226 C9.778,17.892 9.462,17.643 9.067,17.547 C8.674,17.452 8.299,17.338 7.945,17.207 C7.16,16.915 6.75,16.145 6.75,15.405 C6.75,13.92 8.228,13.012 9.499,13.307 C10.04,13.433 10.629,13.52 11.25,13.559 L11.25,11.387 C10.714,11.62 10.122,11.75 9.5,11.75 C8.327,11.75 7.26,11.29 6.481,10.541 C6.182,10.254 6.172,9.779 6.459,9.481 C6.746,9.182 7.221,9.172 7.519,9.459 C8.028,9.947 8.726,10.25 9.5,10.25 C10.163,10.25 10.77,10.028 11.25,9.658 L11.25,8.613 C11.018,8.701 10.767,8.75 10.5,8.75 C9.562,8.75 8.828,8.139 8.364,7.397 C8.145,7.046 8.251,6.583 8.603,6.364 C8.954,6.144 9.417,6.251 9.636,6.603 C9.946,7.098 10.271,7.25 10.5,7.25 C10.701,7.25 10.976,7.133 11.25,6.769 L11.25,5 C11.25,4.586 11.586,4.25 12,4.25 Z M15.75,15.405 C15.75,15.031 15.319,14.657 14.841,14.768 C13.969,14.971 13.007,15.082 12,15.082 C10.993,15.082 10.031,14.971 9.159,14.768 C8.681,14.657 8.25,15.031 8.25,15.405 C8.25,15.635 8.373,15.765 8.468,15.801 C8.762,15.91 9.08,16.007 9.419,16.089 C10.207,16.279 10.932,16.802 11.296,17.61 L11.403,17.846 C11.519,18.104 11.757,18.25 12,18.25 C12.243,18.25 12.481,18.104 12.597,17.846 L12.704,17.61 C13.068,16.802 13.793,16.279 14.581,16.089 C14.92,16.007 15.238,15.91 15.532,15.801 C15.627,15.765 15.75,15.635 15.75,15.405 Z" />
</svg>